<mxfile host="app.diagrams.net" modified="2023-05-16T20:12:48.129Z" agent="Mozilla/5.0 (X11; Linux x86_64) AppleWebKit/537.36 (KHTML, like Gecko) Chrome/113.0.0.0 Safari/537.36" etag="dtfH8tmcCiayulpsGOIB" version="21.2.9" type="github" pages="2">
  <diagram name="Page-1" id="9PIBNYQj7KfOKDpyVQbB">
    <mxGraphModel dx="1576" dy="1221" grid="1" gridSize="10" guides="1" tooltips="1" connect="1" arrows="1" fold="1" page="0" pageScale="1" pageWidth="850" pageHeight="1100" math="0" shadow="0">
      <root>
        <mxCell id="0" />
        <mxCell id="1" parent="0" />
        <mxCell id="Ur3Xwx52cRr4KPsMpFlG-3" style="edgeStyle=orthogonalEdgeStyle;rounded=0;orthogonalLoop=1;jettySize=auto;html=1;exitX=1;exitY=0.5;exitDx=0;exitDy=0;entryX=0;entryY=0.5;entryDx=0;entryDy=0;" edge="1" parent="1" source="Ur3Xwx52cRr4KPsMpFlG-1" target="Ur3Xwx52cRr4KPsMpFlG-2">
          <mxGeometry relative="1" as="geometry" />
        </mxCell>
        <mxCell id="Ur3Xwx52cRr4KPsMpFlG-1" value="Ihost&lt;br&gt;10.0.0.40" style="whiteSpace=wrap;html=1;aspect=fixed;" vertex="1" parent="1">
          <mxGeometry x="120" y="120" width="130" height="130" as="geometry" />
        </mxCell>
        <mxCell id="Ur3Xwx52cRr4KPsMpFlG-10" style="edgeStyle=orthogonalEdgeStyle;rounded=0;orthogonalLoop=1;jettySize=auto;html=1;exitX=1;exitY=0.5;exitDx=0;exitDy=0;entryX=0;entryY=0.5;entryDx=0;entryDy=0;" edge="1" parent="1" source="Ur3Xwx52cRr4KPsMpFlG-2" target="Ur3Xwx52cRr4KPsMpFlG-6">
          <mxGeometry relative="1" as="geometry" />
        </mxCell>
        <mxCell id="Ur3Xwx52cRr4KPsMpFlG-11" style="edgeStyle=orthogonalEdgeStyle;rounded=0;orthogonalLoop=1;jettySize=auto;html=1;exitX=1;exitY=0.5;exitDx=0;exitDy=0;entryX=0;entryY=0.5;entryDx=0;entryDy=0;" edge="1" parent="1" source="Ur3Xwx52cRr4KPsMpFlG-2" target="Ur3Xwx52cRr4KPsMpFlG-7">
          <mxGeometry relative="1" as="geometry" />
        </mxCell>
        <mxCell id="Ur3Xwx52cRr4KPsMpFlG-12" style="edgeStyle=orthogonalEdgeStyle;rounded=0;orthogonalLoop=1;jettySize=auto;html=1;exitX=1;exitY=0.5;exitDx=0;exitDy=0;entryX=0;entryY=0.5;entryDx=0;entryDy=0;" edge="1" parent="1" source="Ur3Xwx52cRr4KPsMpFlG-2" target="Ur3Xwx52cRr4KPsMpFlG-8">
          <mxGeometry relative="1" as="geometry" />
        </mxCell>
        <mxCell id="Ur3Xwx52cRr4KPsMpFlG-13" style="edgeStyle=orthogonalEdgeStyle;rounded=0;orthogonalLoop=1;jettySize=auto;html=1;exitX=1;exitY=0.5;exitDx=0;exitDy=0;entryX=0;entryY=0.5;entryDx=0;entryDy=0;" edge="1" parent="1" source="Ur3Xwx52cRr4KPsMpFlG-2" target="Ur3Xwx52cRr4KPsMpFlG-9">
          <mxGeometry relative="1" as="geometry" />
        </mxCell>
        <mxCell id="Ur3Xwx52cRr4KPsMpFlG-19" style="edgeStyle=orthogonalEdgeStyle;rounded=0;orthogonalLoop=1;jettySize=auto;html=1;exitX=1;exitY=0.5;exitDx=0;exitDy=0;entryX=0;entryY=0.5;entryDx=0;entryDy=0;" edge="1" parent="1" source="Ur3Xwx52cRr4KPsMpFlG-2" target="Ur3Xwx52cRr4KPsMpFlG-18">
          <mxGeometry relative="1" as="geometry" />
        </mxCell>
        <mxCell id="Ur3Xwx52cRr4KPsMpFlG-2" value="capstone 1&lt;br&gt;flt:10.50.30.255&lt;br&gt;IP: 10.1.1.30" style="whiteSpace=wrap;html=1;aspect=fixed;" vertex="1" parent="1">
          <mxGeometry x="500" y="120" width="130" height="130" as="geometry" />
        </mxCell>
        <mxCell id="Ur3Xwx52cRr4KPsMpFlG-4" value="" style="ellipse;shape=cloud;whiteSpace=wrap;html=1;" vertex="1" parent="1">
          <mxGeometry x="320" y="145" width="120" height="80" as="geometry" />
        </mxCell>
        <mxCell id="Ur3Xwx52cRr4KPsMpFlG-6" value="capstone 2&lt;br&gt;10.1.1.11&lt;br&gt;21,23,1918" style="whiteSpace=wrap;html=1;aspect=fixed;" vertex="1" parent="1">
          <mxGeometry x="790" y="-20" width="130" height="130" as="geometry" />
        </mxCell>
        <mxCell id="Ur3Xwx52cRr4KPsMpFlG-7" value="10.1.1.25&lt;br&gt;21,791" style="whiteSpace=wrap;html=1;aspect=fixed;" vertex="1" parent="1">
          <mxGeometry x="790" y="145" width="130" height="130" as="geometry" />
        </mxCell>
        <mxCell id="Ur3Xwx52cRr4KPsMpFlG-16" style="edgeStyle=orthogonalEdgeStyle;rounded=0;orthogonalLoop=1;jettySize=auto;html=1;exitX=1;exitY=0.5;exitDx=0;exitDy=0;entryX=0;entryY=0.5;entryDx=0;entryDy=0;" edge="1" parent="1" source="Ur3Xwx52cRr4KPsMpFlG-8" target="Ur3Xwx52cRr4KPsMpFlG-15">
          <mxGeometry relative="1" as="geometry" />
        </mxCell>
        <mxCell id="Ur3Xwx52cRr4KPsMpFlG-22" style="edgeStyle=orthogonalEdgeStyle;rounded=0;orthogonalLoop=1;jettySize=auto;html=1;exitX=1;exitY=0.5;exitDx=0;exitDy=0;entryX=0;entryY=0.5;entryDx=0;entryDy=0;" edge="1" parent="1" source="Ur3Xwx52cRr4KPsMpFlG-8" target="Ur3Xwx52cRr4KPsMpFlG-21">
          <mxGeometry relative="1" as="geometry" />
        </mxCell>
        <mxCell id="Ur3Xwx52cRr4KPsMpFlG-8" value="Cpastone 4&lt;br&gt;10.1.1.33&lt;br&gt;21,23,80" style="whiteSpace=wrap;html=1;aspect=fixed;" vertex="1" parent="1">
          <mxGeometry x="790" y="330" width="130" height="130" as="geometry" />
        </mxCell>
        <mxCell id="Ur3Xwx52cRr4KPsMpFlG-9" value="VYOS&lt;br&gt;10.1.1.125&lt;br&gt;125(ssh)" style="whiteSpace=wrap;html=1;aspect=fixed;" vertex="1" parent="1">
          <mxGeometry x="790" y="520" width="130" height="130" as="geometry" />
        </mxCell>
        <mxCell id="Ur3Xwx52cRr4KPsMpFlG-15" value="1.1.1.6&lt;br&gt;4444&lt;br&gt;How to get here?" style="whiteSpace=wrap;html=1;aspect=fixed;" vertex="1" parent="1">
          <mxGeometry x="1090" y="330" width="130" height="130" as="geometry" />
        </mxCell>
        <mxCell id="Ur3Xwx52cRr4KPsMpFlG-17" value="1.1.1.1&lt;br&gt;eth1" style="text;html=1;align=center;verticalAlign=middle;resizable=0;points=[];autosize=1;strokeColor=none;fillColor=none;" vertex="1" parent="1">
          <mxGeometry x="930" y="393" width="60" height="40" as="geometry" />
        </mxCell>
        <mxCell id="Ur3Xwx52cRr4KPsMpFlG-18" value="10.1.1.30&lt;br&gt;80" style="whiteSpace=wrap;html=1;aspect=fixed;" vertex="1" parent="1">
          <mxGeometry x="790" y="691" width="130" height="130" as="geometry" />
        </mxCell>
        <mxCell id="Ur3Xwx52cRr4KPsMpFlG-21" value="1.1.1.2&lt;br&gt;4444&lt;br&gt;How to get here?" style="whiteSpace=wrap;html=1;aspect=fixed;" vertex="1" parent="1">
          <mxGeometry x="1090" y="490" width="130" height="130" as="geometry" />
        </mxCell>
      </root>
    </mxGraphModel>
  </diagram>
  <diagram id="_jFrZ5rSckolkaUzkngA" name="Page-2">
    <mxGraphModel dx="1576" dy="1221" grid="1" gridSize="10" guides="1" tooltips="1" connect="1" arrows="1" fold="1" page="0" pageScale="1" pageWidth="850" pageHeight="1100" math="0" shadow="0">
      <root>
        <mxCell id="0" />
        <mxCell id="1" parent="0" />
        <mxCell id="Imw2g_79RK8iozuO8ERg-3" style="edgeStyle=orthogonalEdgeStyle;rounded=0;orthogonalLoop=1;jettySize=auto;html=1;exitX=1;exitY=0.5;exitDx=0;exitDy=0;entryX=0;entryY=0.5;entryDx=0;entryDy=0;" edge="1" parent="1" source="Imw2g_79RK8iozuO8ERg-1" target="Imw2g_79RK8iozuO8ERg-2">
          <mxGeometry relative="1" as="geometry" />
        </mxCell>
        <mxCell id="Imw2g_79RK8iozuO8ERg-1" value="Ihost&lt;br&gt;10.0.0.40" style="whiteSpace=wrap;html=1;aspect=fixed;" vertex="1" parent="1">
          <mxGeometry x="390" y="300" width="130" height="130" as="geometry" />
        </mxCell>
        <mxCell id="Imw2g_79RK8iozuO8ERg-8" style="edgeStyle=orthogonalEdgeStyle;rounded=0;orthogonalLoop=1;jettySize=auto;html=1;exitX=1;exitY=0.5;exitDx=0;exitDy=0;entryX=0;entryY=0.5;entryDx=0;entryDy=0;" edge="1" parent="1" source="Imw2g_79RK8iozuO8ERg-2" target="Imw2g_79RK8iozuO8ERg-6">
          <mxGeometry relative="1" as="geometry" />
        </mxCell>
        <mxCell id="Imw2g_79RK8iozuO8ERg-9" style="edgeStyle=orthogonalEdgeStyle;rounded=0;orthogonalLoop=1;jettySize=auto;html=1;exitX=1;exitY=0.5;exitDx=0;exitDy=0;entryX=0;entryY=0.5;entryDx=0;entryDy=0;" edge="1" parent="1" source="Imw2g_79RK8iozuO8ERg-2" target="Imw2g_79RK8iozuO8ERg-7">
          <mxGeometry relative="1" as="geometry" />
        </mxCell>
        <mxCell id="Imw2g_79RK8iozuO8ERg-2" value="Pivot(Capstone06)&lt;br&gt;FLT: 10.50.24.41&lt;br&gt;10.2.2.6&lt;br&gt;7777 (ssh)" style="whiteSpace=wrap;html=1;aspect=fixed;" vertex="1" parent="1">
          <mxGeometry x="780" y="300" width="130" height="130" as="geometry" />
        </mxCell>
        <mxCell id="Imw2g_79RK8iozuO8ERg-4" value="" style="ellipse;shape=cloud;whiteSpace=wrap;html=1;" vertex="1" parent="1">
          <mxGeometry x="590" y="325" width="120" height="80" as="geometry" />
        </mxCell>
        <mxCell id="Imw2g_79RK8iozuO8ERg-16" style="edgeStyle=orthogonalEdgeStyle;rounded=0;orthogonalLoop=1;jettySize=auto;html=1;exitX=1;exitY=0.5;exitDx=0;exitDy=0;entryX=0;entryY=0.5;entryDx=0;entryDy=0;" edge="1" parent="1" source="Imw2g_79RK8iozuO8ERg-6" target="Imw2g_79RK8iozuO8ERg-15">
          <mxGeometry relative="1" as="geometry" />
        </mxCell>
        <mxCell id="Imw2g_79RK8iozuO8ERg-17" style="edgeStyle=orthogonalEdgeStyle;rounded=0;orthogonalLoop=1;jettySize=auto;html=1;exitX=0.5;exitY=0;exitDx=0;exitDy=0;entryX=0.5;entryY=1;entryDx=0;entryDy=0;" edge="1" parent="1" source="Imw2g_79RK8iozuO8ERg-6" target="Imw2g_79RK8iozuO8ERg-14">
          <mxGeometry relative="1" as="geometry" />
        </mxCell>
        <mxCell id="Imw2g_79RK8iozuO8ERg-18" style="edgeStyle=orthogonalEdgeStyle;rounded=0;orthogonalLoop=1;jettySize=auto;html=1;exitX=0.5;exitY=0;exitDx=0;exitDy=0;" edge="1" parent="1" source="Imw2g_79RK8iozuO8ERg-6" target="Imw2g_79RK8iozuO8ERg-12">
          <mxGeometry relative="1" as="geometry" />
        </mxCell>
        <mxCell id="Imw2g_79RK8iozuO8ERg-19" style="edgeStyle=orthogonalEdgeStyle;rounded=0;orthogonalLoop=1;jettySize=auto;html=1;exitX=0.5;exitY=0;exitDx=0;exitDy=0;" edge="1" parent="1" source="Imw2g_79RK8iozuO8ERg-6" target="Imw2g_79RK8iozuO8ERg-11">
          <mxGeometry relative="1" as="geometry" />
        </mxCell>
        <mxCell id="Imw2g_79RK8iozuO8ERg-20" style="edgeStyle=orthogonalEdgeStyle;rounded=0;orthogonalLoop=1;jettySize=auto;html=1;exitX=0.5;exitY=0;exitDx=0;exitDy=0;entryX=0.5;entryY=1;entryDx=0;entryDy=0;" edge="1" parent="1" source="Imw2g_79RK8iozuO8ERg-6" target="Imw2g_79RK8iozuO8ERg-10">
          <mxGeometry relative="1" as="geometry" />
        </mxCell>
        <mxCell id="Imw2g_79RK8iozuO8ERg-6" value="Capstone 07&lt;br&gt;10.2.2.7&lt;br&gt;23,80,2222?(ssh)&lt;br&gt;Pass:&lt;br&gt;Netflix and Chill" style="whiteSpace=wrap;html=1;aspect=fixed;" vertex="1" parent="1">
          <mxGeometry x="1070" y="180" width="130" height="130" as="geometry" />
        </mxCell>
        <mxCell id="Imw2g_79RK8iozuO8ERg-7" value="10.2.2.14" style="whiteSpace=wrap;html=1;aspect=fixed;" vertex="1" parent="1">
          <mxGeometry x="1070" y="400" width="130" height="130" as="geometry" />
        </mxCell>
        <mxCell id="Imw2g_79RK8iozuO8ERg-10" value="10.10.10.254" style="whiteSpace=wrap;html=1;aspect=fixed;" vertex="1" parent="1">
          <mxGeometry x="720" y="-110" width="130" height="130" as="geometry" />
        </mxCell>
        <mxCell id="Imw2g_79RK8iozuO8ERg-11" value="10.10.10.167" style="whiteSpace=wrap;html=1;aspect=fixed;" vertex="1" parent="1">
          <mxGeometry x="940" y="-110" width="130" height="130" as="geometry" />
        </mxCell>
        <mxCell id="Imw2g_79RK8iozuO8ERg-12" value="10.10.10.182" style="whiteSpace=wrap;html=1;aspect=fixed;" vertex="1" parent="1">
          <mxGeometry x="1180" y="-110" width="130" height="130" as="geometry" />
        </mxCell>
        <mxCell id="Imw2g_79RK8iozuO8ERg-14" value="10.10.10.140" style="whiteSpace=wrap;html=1;aspect=fixed;" vertex="1" parent="1">
          <mxGeometry x="1390" y="-110" width="130" height="130" as="geometry" />
        </mxCell>
        <mxCell id="Imw2g_79RK8iozuO8ERg-15" value="10.2.2.6" style="whiteSpace=wrap;html=1;aspect=fixed;" vertex="1" parent="1">
          <mxGeometry x="1300" y="180" width="130" height="130" as="geometry" />
        </mxCell>
      </root>
    </mxGraphModel>
  </diagram>
</mxfile>
